<?xml version="1.0" encoding="utf-8" ?>
<svg baseProfile="full" height="300mm" version="1.1" viewBox="0,0,200,300" width="200mm" xmlns="http://www.w3.org/2000/svg" xmlns:ev="http://www.w3.org/2001/xml-events" xmlns:xlink="http://www.w3.org/1999/xlink"><defs /><rect fill="#222222" height="300" width="200" x="0" y="0" /><text fill="#FFFFFF" style="font-size:12px; font-family:Arial; font-weight:bold;" x="10" y="20">Over 10km Runs</text><text fill="#FFFFFF" style="font-size:4px; font-family:Arial" x="10" y="280">ATHLETE</text><text fill="#FFFFFF" style="font-size:9px; font-family:Arial" x="10" y="290">Aidan</text><text fill="#FFFFFF" style="font-size:4px; font-family:Arial" x="120" y="280">STATISTICS</text><text fill="#FFFFFF" style="font-size:3px; font-family:Arial" x="120" y="285">Number: 19</text><text fill="#FFFFFF" style="font-size:3px; font-family:Arial" x="120" y="290">Weekly: 1.6</text><text fill="#FFFFFF" style="font-size:3px; font-family:Arial" x="141" y="285">Total: 197.8 km</text><text fill="#FFFFFF" style="font-size:3px; font-family:Arial" x="141" y="290">Avg: 10.4 km</text><text fill="#FFFFFF" style="font-size:3px; font-family:Arial" x="167" y="285">Min: 10.0 km</text><text fill="#FFFFFF" style="font-size:3px; font-family:Arial" x="167" y="290">Max: 11.0 km</text><polyline fill="none" points="28.040887226059567,54.3321666443735 27.315740245918278,53.65341248806362 26.807055050798226,52.76254040173808 28.603687867464032,51.19288858904474 29.96739711385453,52.63527228840394 31.85061464458704,55.194743152365845 33.47407803317765,56.863311859029636 34.231694281159434,57.188537987996824 41.08270978089422,51.07975954261201 42.31654195615556,49.89189653512585 42.976750400906894,48.91614096621197 44.32963655801723,49.26967673415493 47.717263495433144,49.368666516718804 50.91007482632995,49.08583829672716 51.97073757351609,49.15654542957054 52.241314804938156,49.38280790594581 52.51189203636022,50.91006572383776 52.41448423307156,57.40064139380411 52.75,60.681114619736036 52.62012292892905,61.47293625347811 52.273784072720446,61.75572811732127 51.2997060395428,61.89712373800285 48.17183324426878,61.9254028372452 47.749732763215434,62.75963253181544 47.72808658471331,65.48850294837757 47.19775521114934,65.72886606973043 45.79075360769639,65.8985337944905 44.23222875467036,65.74300505821884 43.29061998933321,65.91267275804421 42.31654195615556,65.72886606973043 36.99158204172272,65.82783894544991 35.42223409941653,65.47436392254895 34.166755745594855,64.59774027109233 32.07789951894665,62.080937734775944 30.670897915610112,60.963908807236294 29.57776590064168,61.75572811732127 29.15566541958833,62.745493105612695 28.181587386410683,63.09897813783755 27.3373864244204,63.749387209449196 26.525654730095994,63.523158465046436 23.581774452177342,59.91756616812199 17.910475681477692,51.75853182895662 12.390700160351116,45.36656995807425 12.25,44.97059376948164 19.66381614113925,39.11561303673079 19.92357028328115,39.08732724195579 20.821886691614054,39.80861241418461 21.611972207319923,41.18045362267003 23.441074291826226,43.570522052374145 23.581774452177342,44.0372148854658 24.01469802245265,44.362484310950094 25.3351149118389,46.20094302784128 26.460716194531415,48.336339498382586 28.408872260828502,50.52825353892695 28.560395510401577,51.09390068065841 27.488909673993476,52.28174886947818 26.871993586304598,52.66355410592951 27.099278460722417,53.07363952653395" stroke="#4dd2ff" stroke-linecap="round" stroke-linejoin="round" stroke-width="0.5"><title>2017-07-06 10.2km</title></polyline><polyline fill="none" points="73.12790232192492,54.04728795733536 72.49019215378212,53.77897265998763 71.72277822264004,52.63509378811432 73.60348278621677,51.20875663969491 77.32165732589783,55.981960324068496 78.94295436353423,57.22464906536334 79.48338670941303,56.97046403744753 86.82245796639472,50.33317286750389 87.89251401124056,48.935046777070966 89.51381104887696,49.30223337394273 92.52942353882827,49.35872349526471 95.7612089671893,49.06214998837822 96.75560448365286,49.231620675673184 97.22037630109116,49.52819366018957 97.49059247400146,51.364101315477456 97.36088871100219,57.987200120827765 97.75,60.119486741336004 97.44735788629623,61.701019810614525 96.50700560450787,61.88458892986091 92.58346677344525,61.898709616812994 92.70236188947456,65.0616912901969 92.52942353882827,65.5982582253564 89.74079263414023,65.86654057115084 82.44495596474735,65.9089008732044 79.99139311449835,65.42881635849335 79.13751000800403,64.6804445447051 76.02461969578872,61.00910229085275 75.7327862289967,60.96673983208166 76.52181745402049,59.808825405743846 78.32686148921493,58.10017013362085 78.07826261012815,57.775380989318364 77.38650920736836,58.22726123956818 77.21357085672207,58.63677588348219 76.13270616496447,59.427557850540325 71.90652522019809,63.39549068692577 71.63630904722959,63.536695246635645 71.36609287431929,63.40961115220125 70.24199359485647,62.18112292126898 65.55104083265178,55.86898782454227 64.35128102486487,53.77897265998763 63.16232986387331,52.16906516411109 57.29323458770523,45.33371934793831 57.25,45.02301027286012 57.671537229791284,44.61343768625375 63.61629303445807,39.867917826653866 64.91333066456718,39.0910991267956 65.84287429944379,39.95266130537493 68.65312249801354,43.92139728504844 71.08506805443903,47.94646051295422" stroke="#4dd2ff" stroke-linecap="round" stroke-linejoin="round" stroke-width="0.5"><title>2017-07-08 10.3km</title></polyline><polyline fill="none" points="117.97161073831376,54.539401653681125 117.88463087257696,54.11324551312282 117.12355704698712,53.38877576810046 116.80825503362576,52.76373868978408 117.10181208059657,52.25234171451302 118.51523489935789,51.22953965812485 119.92865771817742,52.593273331585806 121.75523489940679,55.150222183408914 123.46221476513892,56.8832268908518 124.19067114096833,57.28096129869664 132.0514765101252,50.30616740749974 133.0082550335792,48.871371508845186 134.01939597318415,49.24072694139613 136.88973154360428,49.24072694139613 137.80302013427718,49.411198204128596 141.0321476510726,49.013431457402476 142.0976510067121,49.16969715999585 142.43469798663864,49.51063963539491 142.64127516787266,51.1585113362089 142.49993288592668,57.40880415413994 142.75,61.4996863847482 142.5760402685264,61.741156668562326 141.88020134234102,61.95421818351315 138.183557047043,62.09625893295015 137.7486577181262,63.772324037432554 137.77040268463315,65.51937796206039 135.86771812086226,65.95968739154341 126.60436241613934,65.9738908881991 125.21268456376856,65.63300639362569 120.98328859067988,61.0877650987095 120.04825503361644,61.386053101588914 119.13496644294355,62.309319666339434 119.08060402685078,62.74964369607187 117.03657718125032,63.857546911567624 116.43859060405521,63.54506267303077 114.67724832217209,61.42866559840331 110.64355704700574,55.95990857228753 108.05590604030294,52.02505330268468 102.36959731543902,45.41925066199474 102.25,44.99305436396389 106.72946308727842,41.3134816089223 109.89335570472758,39.026109111800906 110.90449664433254,39.878552387002856 111.5242281879764,41.157203221082455 112.5571140939719,42.251146636132034 116.37335570476716,48.09003806468536 118.30865771818208,50.362990569607064 118.61308724834817,50.9312203557929 118.53697986580664,51.18692267123697" stroke="#4dd2ff" stroke-linecap="round" stroke-linejoin="round" stroke-width="0.5"><title>2017-07-09 10.0km</title></polyline><polyline fill="none" points="162.90290806751,54.358843018671905 161.80655320291407,52.74204157004715 162.47956311982125,51.93363070191117 163.66275797376875,51.12521307099814 167.39687751274323,55.890524703288975 168.4389573840308,56.91163234004489 169.24222728493623,57.08181589726155 172.41188689362025,54.48648408623558 172.7266818547505,54.01846601416037 177.0795363173238,50.23169097906066 178.14332618605113,48.84175130286167 179.17455105873523,49.13959720222192 180.52057089254959,49.01194907208992 182.9520905922982,49.26724516377726 185.81781023857184,48.78501864652935 187.3049450549297,49.05449846754345 187.61974001611816,50.82737329165684 187.43520503886975,57.280363001955266 187.75,61.18031272060034 187.53290002676658,61.5632083909295 186.9792950951378,61.81847132844268 182.90867059770972,62.07373359178018 182.6590056285495,62.952965116324776 182.86525060306303,64.73976582932664 182.7241356204613,65.57643099886627 180.34689091396285,65.95930925420544 172.99805682123406,65.81750266982999 172.1296569284168,65.95930925420544 170.251742160297,65.63315379906271 168.8405923344544,64.5128723316302 168.23271240951726,63.420939924362756 165.80119270971045,60.71232706349838 168.44981238275068,58.14545634035312 168.2978424014873,57.79091082663217 166.73472259443952,58.996360266515694 161.8716831948841,63.49184500068077 161.58945322968066,63.54856902422762 157.5188287322526,58.514182294871716 153.3396542481496,52.25983239236666 147.25,45.054773397918325 147.94471991423052,44.30303353731142 154.64225408737548,39.04069074580184 155.1090190297109,39.11161371299386 155.77117394801462,39.62225754001702 156.41161886893678,40.88467097352259 161.1335432860069,47.55107513031544 161.33978826052044,48.203506998572266 162.62067810236476,49.45162525502383 163.61933797906386,50.89828760810633 161.82826320023742,52.50093728196225 162.4578531224979,53.578810609091306" stroke="#4dd2ff" stroke-linecap="round" stroke-linejoin="round" stroke-width="0.5"><title>2017-07-12 10.9km</title></polyline><polyline fill="none" points="27.99036402575439,102.97180327022943 26.754550321260467,101.37132783130073 28.651632762339432,99.8558089232829 31.773688436835073,103.69413305010676 33.02034261246445,104.79886225660448 33.70329229126219,105.74778622273152 36.28332441113889,103.14176370478526 37.887714132783,101.90954377274466 40.86884368309984,98.97764688971802 41.671038543921895,98.53856287629606 42.375669164874125,97.68871717501315 43.026097430381924,97.57540384939057 43.88249464670662,97.91534342712112 48.175321199174505,98.04282046009757 49.89895610284293,97.92950755023776 50.77703426126391,97.68871717501315 52.06705032126047,97.84452278051322 52.43562633835245,98.12780505514093 52.66327623126563,103.22674380984972 52.46814775164239,106.83832910930505 52.75,109.38760207340965 52.59823340474395,110.26566939330951 51.81771948613459,110.56307748100517 48.12111884373007,110.74718679030047 47.76338329765713,111.20037744024012 47.77422376873437,114.16022654208791 46.61429336189758,114.58507781598018 45.4110010706936,114.48594601931836 44.14266595290974,114.67004784638266 41.9962526767049,114.48594601931836 36.54349571734201,114.69837117322459 35.02582976449048,114.38681412086589 34.23447537480388,113.63624072891253 32.16394539619796,110.88880909699219 30.765524625312537,109.62836326248362 29.90912740904605,110.1098838388425 29.269539614615496,111.29951261125098 28.152971092087682,111.73853857329232 27.28573340474395,112.4608027467184 27.307414346956648,112.80068989941356 27.17732869379688,112.72988017461466 26.505219486134592,112.26253468824143 22.732735546072945,107.57479265956499 19.664882226963528,103.1276003466919 19.437232334108558,102.43359325271012 17.724437901517376,100.20990425677155 12.25,93.75100108314655 19.296306209871545,88.02827830039314 19.70824411138892,87.80162882677541 20.185224839427974,87.81579443448572 20.7489293362014,88.24076169831096 21.540283726004418,89.72813238272647 25.23688436835073,94.82751496670244 26.451017130631953,97.00883522542426 27.6001070663915,97.98616402178595 28.69499464670662,99.5583678390758 28.218013918667566,100.2807231675688 27.14480728050694,101.07389141798922 27.02556209854083,101.47047309867776" stroke="#4dd2ff" stroke-linecap="round" stroke-linejoin="round" stroke-width="0.5"><title>2017-07-14 10.3km</title></polyline><polyline fill="none" points="72.85948807286331,103.00248385721352 71.7956982042524,101.38568098491669 73.55420798709383,99.99577619197225 73.80387295631226,100.00995899490226 77.09293755027466,104.33561675564124 79.05769230768783,106.0658256484603 88.09990619134624,97.99598014104413 92.75670061644632,98.10944485422078 96.94673009915277,97.81159969803412 97.39178504422307,98.56330237457587 97.55461002414813,99.91067933075101 97.52204502816312,106.6331005098109 97.75,109.6963272255307 97.60888501745649,110.29194336819637 97.34836504957639,110.60393131137971 95.30762530153152,110.64647504376626 94.80829536315287,110.97264303671545 92.86525060306303,111.11445486424782 92.63729563122615,114.22008171342168 90.83536585362162,114.75894744568359 89.41336102923378,114.71640552339522 88.61009112838656,114.43279222976707 84.61545162159018,114.77312808225543 83.92073170730146,114.58877964425483 82.73753685341217,114.6880442314723 80.0672071831068,114.43279222976707 79.66557223268319,113.65285138129548 78.87315733043943,113.0856177202586 75.93145269359229,109.55451331724908 76.2245376574574,108.93052964859817 78.37382739211898,106.97346382836258 78.44981238275068,106.6898278128283 78.24356740823714,106.4771002548805 77.93962744571036,106.56219133423292 76.69130259985104,107.96618332754588 73.74959796300391,110.67483752163389 71.99108818016248,112.14967490162962 71.54603323503397,112.29148500220617 67.77934870007448,107.51236996460648 63.20939426426776,100.80419263643125 57.25,93.86861063241668 57.29341999464668,93.57075240422273 58.07497989817057,92.87574630114977 64.75080407399219,87.72687191774457 65.66262396139791,88.42191505761002 71.37235325650545,96.91805872117402 72.01279817742761,97.42865457680455 73.6084829804604,99.61283972623642 73.23941302596359,100.27943185492768 71.81740820157574,101.34313317559281 73.05487804877339,103.10176034508186" stroke="#4dd2ff" stroke-linecap="round" stroke-linejoin="round" stroke-width="0.5"><title>2017-07-16 10.9km</title></polyline><polyline fill="none" points="118.15297109208768,102.97180575101811 117.68683083512587,102.63188388413982 116.88463597436203,101.39965708029922 118.96600642398698,99.82748279834777 122.22898822271964,104.1898492758628 123.56236616702517,105.5353446024601 124.27783725911286,105.97439691307954 133.02609743038192,97.97200092022103 139.44365631690016,97.92950855096569 141.17813169164583,97.68871810507699 142.47898822266143,97.84452375631372 142.7066381156328,99.44505815436423 142.75,103.77911538652552 142.51150963595137,105.9460710178173 142.66327623126563,109.44425619936374 142.5440310492413,110.30816095299815 142.29470021411544,110.63389352484955 140.1699678800651,110.67638030100352 139.93147751607466,110.9879494214183 137.76338329765713,111.21454451360478 137.86094753752695,113.86283521472069 137.69834047107724,114.16023230636347 135.12914882227778,114.7125387598062 129.7197537473403,114.50011357478797 127.37821199145401,114.64173041679169 126.50013383297483,114.42930507585697 126.0773554603802,114.54259864918276 125.62205567455385,114.2027175303374 125.21011777303647,114.35849652505567 121.94713597436203,110.44978394539794 121.66528372594621,110.3789724751623 120.97149357601302,109.60004287393531 121.09073875803733,109.17516953286395 123.56236616702517,106.81000708320062 123.61656852252781,106.68254159267235 123.23715203430038,106.47009873434581 122.90109743044013,106.69670443323412 122.78185224841582,107.10742590644077 120.97149357601302,108.41039280578116 120.93897216272308,108.69364415201562 120.32106531050522,109.07603215082781 118.71667558886111,110.7471915530623 116.96051927196095,112.14924364613398 116.57026231265627,112.23421584573225 114.61897751607466,110.06740138900204 108.19057815847918,100.76229221501126 102.25,93.85015398304677 103.04135438974481,93.02859643715783 109.74076552467886,87.7874612401938 110.4453961456311,88.15576652666641 112.75441648822743,91.20131405734719 116.42933618841926,97.02300021616975 117.20985010708682,97.70288226559205 118.56490899360506,99.53004153955408 118.46734475373523,99.92662968088553 116.84127408993663,101.24385716857068 117.82775695930468,102.6460473191546" stroke="#4dd2ff" stroke-linecap="round" stroke-linejoin="round" stroke-width="0.5"><title>2017-07-19 11.0km</title></polyline><polyline fill="none" points="157.55716388614383,95.73774526679335 156.04685966635589,93.98949695318151 157.21270853781607,92.67396628434653 158.087095191353,92.01619544735877 158.59052993130172,92.05081505655835 159.54440628067823,92.96823099739413 160.72350343479775,94.83766026243393 161.45215897937305,95.32232227213535 163.06844946026104,97.64174860443018 165.20142296369886,99.52841250375059 175.80004906770773,89.57548738671176 181.72203140333295,89.69665848198201 184.47767419042066,89.55817722007487 185.69651619228534,89.19466313396697 186.58415112859802,89.22928357145429 187.24656526005128,89.61010771236761 187.75,91.58344947499427 187.4717860647943,94.57801908084366 187.73675171734067,101.89968120984122 187.6175171736977,104.54783006275102 187.37904808641179,104.9805284729955 187.04784102068515,105.17091527066805 182.25196270860033,105.17091527066805 181.89425907749683,106.918997867906 181.8810107948957,109.25550346136879 181.58954857703065,109.65357017089264 180.42369970557047,109.94779252758599 179.33734052994987,109.65357017089264 177.80053974484326,109.93048535041453 177.25736015703296,109.77472064193717 176.71418056916445,110.12086415936938 174.81967615312897,109.53241957538557 173.58758586848853,109.94779252758599 172.52772325807018,109.77472064193717 172.02428851817967,110.3285497822435 170.12978410208598,109.61895572768117 169.4673699705745,109.80933503934648 168.22203140333295,109.61895572768117 168.08954857703065,110.13817130855023 167.78483807650628,110.29393553718546 167.30789990187623,109.60164850232832 166.76472031406593,109.54972681096115 165.20142296369886,108.3901364153935 162.7372423945344,105.37860960858234 161.14744847890688,103.7689689244362 160.82948969578138,103.7689689244362 159.3456820411957,105.06706796462095 158.74950932286447,106.10553691160749 157.25245338567765,106.918997867906 156.65628066734644,107.81899068744679 158.11359175667167,110.03432837519358 159.37217860645615,111.41889330401318 160.6572620216175,112.52653354703943 162.5120215897914,113.30533686602575 164.7774779194733,110.51892794877494 164.7774779194733,109.49780509667471 165.78434739942895,108.70166928326944 167.69210009812377,106.10553691160749 168.18228655541316,105.30937820327381 168.12929342495045,104.63436987175373 167.0296859666705,103.68242848050431 165.46638861630345,101.46697149811371 164.02232580957934,100.18614144790627 156.21908734051976,107.0055359373946 155.649411187449,106.88438262233103 150.91977428848622,100.96502624374989 147.25,95.5819618152309 147.3427379783825,95.23577563071012 148.48209028458223,94.2318299496037 153.23822374880547,90.56216268490243 153.68866535817506,90.66602276240155" stroke="#4dd2ff" stroke-linecap="round" stroke-linejoin="round" stroke-width="0.5"><title>2017-08-02 10.1km</title></polyline><polyline fill="none" points="12.25,151.85492306518427 12.785863509750925,152.2111275821735 15.04213091917336,155.18353375549486 15.606197771558072,155.46602967567742 23.512534818903077,148.26822758067283 27.00974930357188,148.4401959409006 34.8408774373238,148.21909369855712 36.68349582172232,148.35421180495905 42.72841225628508,148.21909369855712 44.30779944284586,148.42791249832953 45.943593314732425,148.23137717181817 47.65459610027028,148.3787787099718 49.4972144846688,148.3173614339612 49.68523676879704,147.8628721905916 51.21761838439852,147.9120062818256 51.40564066852676,147.3223952829503 52.27054317545844,146.95388629919762 52.71239554317435,146.2659985212449 52.65598885790678,145.35699528492842 52.14832869078964,144.75508230298146 50.991991643444635,144.53397032432258 50.32451253483305,144.98847764660604 50.0142757659778,145.62724052168778 50.0894846796873,146.45025473048008 50.550139275728725,147.02758822574833 51.26462395541603,147.3101116762773 52.01671309192898,147.1258573602172 52.59958217269741,146.59765940576472 52.721796657308005,145.46755026000028 52.373955431743525,144.87792203865683 51.753481894149445,144.54625433847104 50.973189415060915,144.57082236135466 50.30571030639112,145.0253294834547 50.05188022280345,145.50440188591892 50.02367688016966,146.2414309960368 50.45612813369371,146.92931897589006 51.151810584939085,147.27326084552624 51.68767409469001,147.2486936159985 52.402158774319105,146.89246797747182 52.6747910862905,146.47482219439553 52.75,145.590388949895 52.383356545935385,144.90248996415903 51.744080779957585,144.5585383508078 50.991991643444635,144.54625433847104 50.50313370471122,144.8042182188583 50.098885793820955,145.27100798115134 50.061281337053515,146.1922959239455 50.31511142058298,146.78191488482116 50.822771587758325,147.16270825588435 51.3962395543349,147.3223952829503 51.37743732589297,147.72775329088472 51.010793871828355,147.875155716094 49.36559888580814,147.7400368362505 46.864902506931685,147.92428980012482 44.75905292481184,147.8628721905916 43.80954038997879,147.67861909148633 43.480501392739825,147.875155716094 39.25940111419186,147.76460392153967 36.49547353759408,147.875155716094 31.42827298049815,147.6909026440262 30.939415041764732,147.85058866324835 26.624303621123545,148.01027437778248 26.107242339814547,147.875155716094 23.19289693585597,147.9120062818256 15.408774373237975,154.91331937438372 14.948119777138345,155.01157925026928 14.40285515319556,154.29919253670232" stroke="#4dd2ff" stroke-linecap="round" stroke-linejoin="round" stroke-width="0.5"><title>2017-09-26 10.0km</title></polyline><polyline fill="none" points="91.40831758041168,138.23181476529862 90.03024574671872,136.04786887088267 92.30151228734758,134.48073678254877 94.41965973540209,137.41492388805636 94.90453686210094,137.6483218809808 96.19328922498971,139.3321074785781 97.68620037811343,141.93275698355865 96.48676748585422,142.7829564087442 88.01417769381078,150.5844893635076 87.19754253310384,151.61798559565068 84.62003780720988,153.63494310178066 78.69943289225921,159.4855842143079 72.01323251420399,165.4525944815905 71.74527410208248,164.85257409925543 72.26843100192491,164.4692260851516 72.9319470699993,162.8358157046896 72.8936672967975,162.2024461787296 72.44706994330045,161.70241511188942 72.05151228734758,160.66901060110104 71.00519848777913,160.3189843618311 70.07372400758322,159.41891193848278 69.05293005669955,157.98544854521606 67.6876181474654,155.20181099863112 65.95226843102137,154.3850421314055 64.75283553882036,153.45158480801183 62.85160680528497,151.21792365325382 62.36672967864433,150.10107660852373 61.448015122907236,149.06756657781807 59.061909262731206,149.25093194671354 58.181474480137695,148.83419204394158 57.364839319488965,149.150914509446 57.25,149.98439046292333 58.832230623753276,151.46796253235516 59.41918714554049,151.83468522629846 60.69517958408687,151.83468522629846 61.03969754255377,152.23474499706208 61.20557655952871,154.08500311378884 61.49905482039321,154.86843665994093 62.63468809076585,156.40195051908086 62.57088846882107,156.90200491141877 63.19612476369366,158.5355005901729 63.77032136108028,158.98554119186883 64.33175803400809,159.0855499723839 64.74007561436156,161.11904275294364 66.66682419658173,164.01920720111957 68.32561436668038,165.01924674547627 69.93336483929306,164.8359068211721 70.23960302461637,161.45239875338302 69.32088846882107,160.9690322337119 68.75945179583505,161.25238527043985 68.26181474479381,161.15237839695328 67.80245746695437,162.05243708974012 66.60302457469516,162.33578742491227 66.24574669188587,162.91915353740478 66.4499054820626,163.73586106353468 68.52977315691533,164.9525777163144 69.95888468809426,164.88590864801517 72.12807183369296,165.51926321745123 97.58412098302506,142.03278077559662 97.75,141.76605046782788 97.63516068056924,141.31594165335264 95.13421550096245,138.34851298252033" stroke="#4dd2ff" stroke-linecap="round" stroke-linejoin="round" stroke-width="0.5"><title>2017-10-19 10.2km</title></polyline><polyline fill="none" points="136.13567839202005,138.5679068603058 135.74136306537548,137.47106147004524 134.8509736181004,136.12491851618688 137.12782663322287,134.5294691079689 140.295069095504,138.95013836379076 142.2920854271506,141.27673707994109 142.5210427136044,142.0577987891811 127.91865577892167,155.30179109305755 125.43828517588554,157.8440616258158 123.46670854272088,159.35610396681295 122.44912060303614,160.5856619795013 117.03046482417267,165.453916048682 116.85238693474093,165.4705308920311 116.7124685930321,164.97208453117491 117.22126256284537,164.47363597705407 117.41206030157628,163.46011715319764 117.83181532670278,162.91181630473147 117.84453517594375,162.21397502278705 117.37390075373696,161.7321297238741 117.0940640703775,160.85151060573116 115.84751884423895,160.31981272924168 115.00800879404414,159.439182631344 112.51491834176704,155.16886034505296 110.45430276385741,154.15525826162775 109.6147927135462,153.37427997763734 106.38395100506023,149.07049453075888 104.11981783923693,149.3696045988181 103.29302763822488,148.83785282057943 102.33903894474497,149.1535807399996 102.25,150.00105659286783 103.92902010050602,151.69598927487823 104.42509422113653,151.94524194172118 105.11196608049795,151.79569040742354 106.00235552765662,152.24434441794438 106.25675251259236,154.17187476233084 107.55417713569477,156.28215054148313 107.55417713569477,156.9800283685836 108.01209170860238,158.19299626519933 108.72440326638753,158.99055711896654 109.36039572866866,159.10686760758836 109.83103015081724,161.30012874781823 111.24293341708835,163.52657768173958 113.08731155784335,165.00531435682933 114.85537060303614,164.9222397744088 115.21152638195781,163.87549481700262 115.23696608043974,161.51612944177032 114.47377512563253,161.034281174434 113.67242462316062,161.34997509836103 113.18907035182929,161.20043598089978 112.70571608043974,162.1475137241432 111.86620603012852,162.1475137241432 111.45917085430119,162.47981982756755 111.21749371860642,162.91181630473147 111.30653266335139,163.5930381713115 112.15876256284537,164.34071599222807 113.31626884423895,164.938854695778 114.90625000005821,164.8723949958221 117.1703831658815,165.453916048682 124.0772613065783,159.22317797680444 129.7884736181004,153.64014552997105 142.62280150759034,142.00794394739933 142.75,141.70881443587132 141.00738065328915,139.66474162692612" stroke="#4dd2ff" stroke-linecap="round" stroke-linejoin="round" stroke-width="0.5"><title>2017-11-12 10.2km</title></polyline><polyline fill="none" points="181.39229311438976,138.26892184169992 179.90840176888742,136.0794577698107 182.13423878711183,134.4749382881273 182.7866392924916,135.66161633178854 186.9568856601254,140.9095935025107 187.570909665199,141.99592799291713 179.98515476944158,148.6808352507578 175.49510423257016,153.0926591247553 174.08796588756377,154.11203351995937 161.89703095389996,165.5250617118727 159.8374921036302,164.85668748167518 158.08496525586816,164.9736532549723 156.34523057489423,163.7872805569932 154.6950410613208,161.19726906326832 154.19614655722398,159.12521747000574 153.4542008844437,158.87456351227593 152.49478837649804,157.28707563865464 152.2517372078728,155.95022658564994 151.39466203423217,154.63007274945994 150.7550536955241,152.05656432564865 150.42245735944016,151.7056268537708 149.0664876817027,151.77247216988326 147.25,150.067904355441 147.32675300067058,149.28245765963948 147.9535691725323,148.94822338038648 149.0153190146084,149.5164210715957 150.33291219209787,149.08191720976902 151.21557169937296,149.14876406564872 152.77621604548767,151.50509067013627 154.74620972847333,153.89479056128766 157.41977258370025,155.3486393931671 158.78853442834225,158.0557567400465 159.7479469362297,159.37587087624706 159.9654137713369,161.34765843772766 159.79911560332403,161.49804761365522 159.10833859763807,161.06358945262036 158.66061276057735,161.29752866827766 158.13613392302068,161.19726906326832 157.355811749876,162.2834100845721 156.9464624131797,162.0661827087606 156.2428932407056,162.584185767264 156.14055590657517,163.58676564101188 157.81632975366665,165.0070720253134 158.64782059390564,165.0906189082525 159.85028427047655,164.739721588252 160.08054327231366,163.53663685687206 160.06775110558374,159.79362532770756 160.68177511059912,160.49544935736776 161.84586228686385,160.91319970316545 162.0889134554891,161.73198593712004 162.65176879346836,162.41708826378454 162.06332912197104,164.38882318733522 161.5132659507799,165.07390953661525 161.92261528747622,165.5250617118727 176.30101073911646,152.54119048546272 181.00852811115328,147.928802770919 183.2727416298003,146.15732886120531 186.53474415669916,142.798137580794 187.45578016428044,142.17976818917668 187.75,141.79537471303047 187.3022741630557,141.12686122955347" stroke="#4dd2ff" stroke-linecap="round" stroke-linejoin="round" stroke-width="0.5"><title>2017-11-14 10.1km</title></polyline><polyline fill="none" points="46.39630681829294,186.95116231984866 44.93892045458779,184.84659490478953 47.20170454552863,183.27649545451277 50.410511363705155,187.83640524000657 52.12357954552863,189.79059636673628 52.59659090911737,190.72592383674782 51.65056818188168,191.3272017229392 49.848011363705155,193.3147365772602 46.71590909099905,195.85338608418533 43.81392045458779,198.8262062976646 37.07670454552863,204.85511452609353 35.35085227282252,206.79231365476153 33.57386363641126,208.1115941920507 32.84517045458779,209.04677113594516 27.04119318188168,214.22350454548723 24.79119318193989,213.6056487347305 23.129261363646947,213.65574527675926 21.237215909117367,212.23633471775975 20.13778409094084,210.199032163815 19.72869318188168,209.88174405881728 19.204545454587787,207.7609008575164 18.680397727293894,207.6774022853133 17.913352272764314,206.7255142335125 17.504261363705155,204.805014111349 16.532670454587787,203.53579624939448 15.99573863641126,200.89711382430687 15.484375000058208,200.44619361986406 14.461647727293894,200.54639826408675 13.88636363641126,200.2791856834083 12.25,198.62579389238817 12.377840909117367,197.94104884551052 12.978693181881681,197.62372657336527 14.052556818176527,198.17486469048163 16.238636363646947,197.92434769531974 16.941761363705155,198.62579389238817 17.88778409094084,200.34598888744222 19.600852272764314,202.46697023186425 20.802556818234734,203.33539213552285 21.991477272764314,203.61929785937537 22.579545454587787,204.20380741438566 23.921875,206.97601186092652 24.90625,208.4121876189456 25.085227272764314,210.1489341007764 24.893465909117367,210.26582954693004 24.407670454587787,209.79824704213388 23.627840909117367,210.0988360156989 23.11647727282252,210.01533915816253 22.630681818234734,210.91710197845532 21.88920454547042,210.86700423136062 21.301136363646947,211.217687997967 21.04545454547042,211.81885765609331 21.19886363641126,212.28643186227418 22.73295454547042,213.5722510278647 23.576704545528628,213.82273359087412 24.85511363641126,213.42196122548194 25.174715909117367,210.8336057210472 25.07244318188168,208.42888723048236 25.571022727293894,209.03007161503774 26.96448863641126,209.68135111584706 27.79545454547042,211.217687997967 27.846590909175575,211.5683706843265 27.348011363705155,212.25303376835654 27.09232954547042,213.28837012354052 26.644886363705155,213.75593829461286 27.09232954547042,214.20680578386236 36.079545454645995,206.05751786577457 39.12215909094084,202.951283264425 41.461647727293894,201.14762427727692 45.2585227273521,197.35650713180075 46.16619318188168,196.90557290164725 50.05255681817653,192.93059389093833 52.23863636364695,191.22698896251677 52.75,190.57560386882687 52.660511363705155,190.27496333755698" stroke="#4dd2ff" stroke-linecap="round" stroke-linejoin="round" stroke-width="0.5"><title>2017-11-16 10.1km</title></polyline><polyline fill="none" points="91.35863377607893,186.97062088915118 90.10341555980267,184.91226517791802 90.7054079696536,184.22613835053198 91.23055028461386,184.1089943331899 92.29364326375071,183.17183786239184 96.54601518029813,189.062407733305 97.17362428840715,189.6481011736396 97.75,190.535002656703 97.64753320679301,190.71907568502502 92.0246679316624,195.95666553050978 89.51423149905168,197.96462340861035 78.72960151801817,208.27158403360227 72.0948766603251,214.2277794860056 69.80218216317007,213.5585595513112 68.66223908920074,213.8095174869377 68.0602466793498,213.69240385234298 66.31831119547132,212.32049232137797 64.8069259962067,209.9614351325581 64.28178368118824,207.88676295685582 63.50047438329784,207.55213487823494 63.000948766595684,206.84941271758726 62.578273244784214,205.12605194759817 61.52798861480551,203.38593309922726 61.00284629978705,200.9095643482142 60.46489563572686,200.42432363054104 59.952561669866554,200.29046375893813 59.33776091079926,200.5079859705147 58.90227703982964,200.25699876648287 57.25,198.5168056272596 57.41650853888132,197.86422635438066 58.13377609109739,197.64669910027442 59.09440227702726,198.1988828582107 60.336812144261785,197.84749350338097 61.41271347249858,198.03155472907383 64.70445920305792,202.31507753494952 65.83159392792732,203.2186125800872 67.40702087292448,203.85442924698145 67.72722960152896,204.2392639287791 68.34203036053805,205.74512628903176 69.9686907021096,208.3217779914121 70.14800759014906,210.31278716777888 69.46916508540744,209.79412425924966 68.72628083493328,210.11201470879314 68.20113851991482,209.97816620643425 67.70161290321266,210.89837148801598 67.40702087292448,211.01548799130978 67.0099620493711,210.81471676920773 66.43358633777825,211.1827970731174 66.13899430737365,211.83530014736607 66.22865275142249,212.35395377459645 67.93216318782652,213.65894279177883 69.95588235295145,213.64221225784422 70.26328273245599,212.47106878337217 70.09677419357467,208.60621000153333 70.27609108161414,208.42216584069683 70.71157495258376,209.00775986720691 72.05645161290886,209.72719984119612 72.81214421254117,211.01548799130978 72.83776091085747,211.65126119668275 72.17172675521579,213.29087047801295 71.68500948767178,213.77605646072334 72.04364326375071,214.32816213760816 79.04981024673907,208.07080798163952 84.55740037956275,202.61625667861517 86.24810246680863,201.41153533184115 88.64326375711244,199.06898517241643 88.83538899436826,198.60046936657454 93.94592030363856,194.4674072698981 96.50759013282368,191.79004013833037" stroke="#4dd2ff" stroke-linecap="round" stroke-linejoin="round" stroke-width="0.5"><title>2017-11-20 10.0km</title></polyline><polyline fill="none" points="136.45227560051717,186.8944400078617 135.69706068269443,186.15858691100584 134.87784450064646,184.80393583014666 137.2842920354451,183.2485758411567 142.62199747160776,190.57363422137132 140.0363463970134,193.13227653541253 138.5643173198332,194.21926405429986 137.80910240206867,195.15573729563766 136.05546776234405,196.52698780185892 134.14823008846724,198.51694394896185 132.71460176998517,199.63732413917023 123.35761694057146,208.4662035765068 116.89348925411468,214.2347042912079 114.9094500632491,213.6160674640123 113.20701643486973,213.69966723137622 111.19737673830241,212.32862330343778 109.72534766123863,209.88745549085434 109.16213653603336,207.88097704936808 108.22771807841491,207.29574751754262 107.62610619468614,206.45970011705504 107.4213021491887,204.90463564170204 106.34608091018163,203.31610701440513 105.89807206066325,200.9416334718917 105.24525916558923,200.3898121142629 103.91403286979767,200.30620258455747 102.25,198.50022177313076 102.33960176986875,197.88149954348046 103.0180151706445,197.66410985459515 104.17003792664036,198.38316647378088 105.42446270544315,197.9651108518592 106.26927939319285,197.98183310616878 107.11409608088434,198.88483119600278 107.93331226299051,200.42325590897235 109.86615044251084,202.6472462322563 110.86457016435452,203.31610701440513 112.27259797725128,203.8344714209088 114.76864728197688,208.24883407429297 114.92225031607086,209.20191266213078 113.29661820479669,209.61992707262107 112.64380530978087,209.38583919156372 112.45180151704699,208.934382634965 112.54140328703215,207.73048974245467 111.5685840707738,207.4796771227484 111.55578381795203,206.59346811320574 111.15897597977892,206.25904782846192 110.41656131483614,206.15872155173565 109.50774336286122,206.9613292931972 109.29013906448381,207.7472105641209 109.64854614413343,209.83729396021954 111.19737673830241,212.41222401503182 112.38780025287997,213.34854779623856 113.46302149177063,213.83342673181323 114.9094500632491,213.68294728281762 116.89348925411468,214.2514241588433 133.82822376739932,198.88483119600278 135.64585967129096,196.66076745571627 139.0507269279915,194.15237281404552 142.75,190.50674084130878 138.94832490524277,185.4896254268897 138.11630847037304,185.65686616605672 137.41229456389556,186.44289435260725 136.82348293304676,186.7439249882009" stroke="#4dd2ff" stroke-linecap="round" stroke-linejoin="round" stroke-width="0.5"><title>2017-11-27 10.5km</title></polyline><polyline fill="none" points="181.8144346177578,187.22783767591318 179.98515476938337,184.78767358063487 182.27495262154844,183.2332952186698 185.664876816154,188.06349829273677 187.3534428299754,189.86850429901097 187.68603916605935,190.65400723865605 179.31996209721547,198.09094746726623 175.95562223618617,201.46665673131065 172.01563487044768,204.87568733016087 169.89213518623728,207.18173841510725 161.97378395445412,214.2667047813302 159.88866077066632,213.6484587544037 158.25126342388103,213.7487150947709 156.71620341122616,212.8631143687744 154.74620972835692,209.78852255974925 154.22173089062562,207.7665990225796 153.44140871759737,207.3655520724351 152.7506317119114,206.12898175461305 152.58433354384033,204.90910869380605 151.47141503466992,203.53882474522106 150.9341440302669,200.93189757619257 150.2177826910629,200.4472699232283 149.13044851546874,200.34700187552517 147.25,198.47531545042148 147.3395451674005,197.9739656497477 147.966361339204,197.6397312233239 148.91298168036155,198.12437082164251 149.910770688497,197.873695424787 151.3690777005395,197.94054225123546 152.0854390398017,198.72598952318367 152.92972204677062,200.3804245679421 154.3880290587549,202.08496887490037 155.7184144029743,203.22131757564057 157.56048641819507,204.02343924516026 159.9654137713369,208.30132609305292 160.24684144026833,209.922202189955 160.06775110546732,213.36439864416025 159.7991156032076,213.7152963244298 158.49431459250627,213.78213385531853 156.88250157923903,212.9800808969958 156.21730890707113,212.22815112015815 156.28126974101178,211.54305522478535 156.6906190776499,210.97492379635514 157.63723941880744,210.99163358466467 158.21288692357484,209.95562207302282 159.58164876810042,209.82194248201995 160.24684144026833,210.44020927549718 160.1445041060797,211.9942163995729 160.73294377757702,213.6150399546168 162.08891345543088,214.19986753479316 187.75,190.5203049932461 187.2255211622687,189.41725547934766 183.96351863542804,185.60663859246415 183.1448199620354,185.64006561075075 181.71209728356916,186.9102850338022" stroke="#4dd2ff" stroke-linecap="round" stroke-linejoin="round" stroke-width="0.5"><title>2017-12-03 10.4km</title></polyline><polyline fill="none" points="46.6124763705302,235.8901820822939 46.74007561436156,235.74014153932512 44.88988657842856,233.63955312911276 46.17863894137554,232.93934836050175 47.18667296785861,232.03907874442666 50.12145557656186,235.84016859000985 50.38941398868337,236.5236844123574 52.69896030239761,239.2910479044076 41.02362948958762,250.02644658969075 38.87996219279012,251.59332988778624 36.710775047249626,254.0936308258315 33.967391304380726,256.37719094393833 31.517485822318122,258.91072218961926 26.949432892201003,262.96092125557334 25.392722117190715,262.660911460458 24.767485822259914,262.31089903166867 23.33837429108098,262.47757175126753 21.56474480149336,261.36085986210674 19.829395085049327,258.6940408052833 19.293478260864504,256.5272042358265 18.6937618147349,256.4438635425686 17.838846880942583,255.37709727042238 17.54536862007808,254.59368441118568 17.55812854442047,253.51023219477065 16.49905482045142,252.04338811714115 15.963137996208388,249.5597112176547 15.54206049151253,249.24299683749268 13.959829867701046,249.02629701613478 12.25,247.1926665980791 12.377599243889563,246.69258043899754 13.194234404538292,246.37585806639254 14.189508506620768,246.84260651782824 16.333175803360064,246.64257170202472 17.1625708884676,247.29268356571993 18.068525519862305,248.89294307443924 19.70179584127618,250.92657367866195 21.105387523653917,251.99338173522847 22.802457466896158,252.7934812044623 24.94612476369366,257.0105790511734 25.290642722102348,259.6774376166795 24.94612476369366,261.87754881673027 24.690926275972743,262.26089716815477 23.32561436673859,262.4275699610371 22.04962192819221,261.76087732265296 21.296786389430054,260.977508474396 21.232986767485272,260.4441478705703 21.48818525520619,259.9441200309011 21.922022684302647,259.61076691536437 22.725897920608986,259.6441022709405 23.08317580341827,258.79404764938954 23.772211720235646,258.8773866189222 24.410207939508837,258.64403735018277 25.20132325141458,259.01072884308087 25.02268431003904,257.1772595452494 25.91587901703315,257.89398288357916 27.166351606778335,258.294012548562 27.43431001889985,259.110735408467 27.982986767485272,259.7441082789228 27.9191871455987,260.59415579347115 26.655954631394707,262.3609008732383 27.166351606778335,262.92758687303285 30.905009451846126,259.79411124993203 31.989603024616372,258.49402685292443 36.58317580341827,254.34365789356525 38.650283553870395,252.04338811714115 40.34735349717084,251.02658735945442 43.5373345935368,248.07614676636877 44.13705103972461,247.17599709491333 45.61720226844773,246.10914380471513 47.46739130432252,244.108766883699 48.48818525520619,243.40862664024462 52.686200378113426,239.5744487940683 52.75,239.2243652394318 52.39272211724892,238.59087796961103 48.94754253310384,234.35642496849323 48.10538752365392,234.47312460720423 46.650756143731996,235.59010079816653" stroke="#4dd2ff" stroke-linecap="round" stroke-linejoin="round" stroke-width="0.5"><title>2017-12-06 10.8km</title></polyline><polyline fill="none" points="91.81476520642173,235.73644724513724 91.13827607943676,235.3362120048987 89.97675701230764,233.70190347669995 92.28703120077262,231.93415554513922 97.68618027103366,239.3051491486258 85.24133312318008,250.8109482269865 83.00764260953292,252.62842444724083 81.79506775923073,254.06237600028544 76.62566971319029,258.91433371668245 71.83919004094787,263.06584445486806 70.06500157574192,262.3489277285844 68.76307910494506,262.48230792696995 67.89513079106109,262.2989101138446 66.41451307910029,261.1151534739547 64.70414434291888,258.6975840114101 64.52544910175493,256.7301447066711 63.236290576751344,255.9965145543174 62.49598172074184,253.66220529373823 61.870548376929946,252.8451857264008 61.155767412506975,249.9438851114537 60.59415379766142,249.26023452953814 59.317759218392894,249.34360677193035 58.641270091349725,248.7933488421986 57.25,247.3760055423918 57.403167349461,246.72568917159515 58.24558777175844,246.3588423977926 59.19011976046022,246.8424128968254 60.2112354238634,246.6089653265517 61.42381027416559,246.67566468127916 64.88283958402462,251.244477304288 65.87842735578306,252.06150837813766 67.69090765836881,252.7618160525526 68.7503151591518,255.17951176629867 69.98841790098231,257.03026476787636 70.16711314214626,259.04771794534463 69.38851244875696,258.51418009177723 68.73755121335853,258.84764154371805 68.1248818152817,258.74760321084614 67.74196344148368,259.6646179666059 66.7591396154603,259.6646179666059 66.38898518745555,260.01474892174156 66.32516545854742,261.0484625922036 68.02277024899377,262.31558265448257 69.93736211786745,262.2822375706819 70.17987708788132,261.31522588438384 70.20540497952607,257.2136710818595 70.3458083831938,257.24701765261125 70.88189410651103,257.8972738267621 72.19658052315935,258.43081457597145 72.31145603529876,259.14775601404835 72.94965332490392,259.9480573944238 72.93688937911065,260.4148972641924 72.18381657736609,261.96545878639154 71.6732587456354,262.44896289202006 72.01788528205361,262.9824822771043 97.75,239.40520459623076 97.69894421688514,239.05501014427136 95.03127954615047,235.51965333165572 93.94634415383916,234.38564765956835 93.35920264734887,234.35229438024544 91.72541758586885,235.73644724513724" stroke="#4dd2ff" stroke-linecap="round" stroke-linejoin="round" stroke-width="0.5"><title>2017-12-08 10.8km</title></polyline><polyline fill="none" points="136.88597733713686,235.7678993953159 136.10835694056004,235.2848906763902 134.96104815858416,233.68595059595827 137.20467422093498,232.07033200884325 137.35764872521395,232.17026784653717 140.02195467421552,235.9677644708645 142.01062322949292,238.1829121564515 142.60977337113582,239.14890287244634 142.52053824358154,239.4653463191571 137.37039660057053,244.29516311360203 134.25991501420503,246.8598788322197 133.50779036828317,247.80914203417342 129.1225212464342,251.68938099712977 125.11968838522444,255.65274995822983 117.06303116149502,262.92966799115675 114.89589235128369,262.2969110262711 113.46813031163765,262.480077878834 112.19334277621238,261.86397001833393 111.13526912179077,260.66504784113204 110.37039660057053,259.1164212894073 109.89872521243524,258.61685983079224 109.27407932007918,256.5020253043258 108.82790368271526,256.38545847614296 108.10127478756476,255.6360974369818 107.43838526913896,253.62112433166476 106.71175637398846,252.3221970893428 105.88314447592711,249.3579228476301 104.41713881021133,249.19138829022995 103.49929178471211,248.5585547439623 102.25,247.17630078161164 102.39022662892239,246.67668677413167 103.24433427758049,246.4768405553623 104.40439093479654,246.8432250209371 105.46246458921814,246.5934175590446 106.52053824363975,246.72664827381232 107.51487252127845,247.85910303543642 107.98654390935553,248.94158599604998 109.92422096320661,251.20644002701738 111.04603399435291,252.00578948418843 112.55028328613844,252.6052978832231 115.07436260627583,257.068205338619 115.26558073656633,258.86664083487267 115.17634560907027,258.9998571456963 114.32223796029575,258.5335993739427 113.81232294620713,258.7667284991985 113.28966005670372,258.7167722983577 112.66501416428946,259.68258828500257 111.69617563736392,259.7658478991507 111.36473087820923,260.14884133781743 111.27549575071316,260.8315655673505 112.10410764871631,261.76406032048544 113.14943342778133,262.3468656517507 114.99787535413634,262.230304824865 115.21458923514001,259.9989744939521 115.13810198300052,257.15146687022207 116.19617563742213,258.00073100424925 117.17776203970425,258.3670782771078 117.4709631728474,259.3162452573233 118.03186968836235,259.94901883534476 117.34348441922339,261.81401518041093 116.73158640228212,262.38016872312437 117.17776203970425,262.92966799115675 142.75,239.4653463191571 142.09985835693078,238.149601985162 140.8250708215055,236.90046350283228 140.39164305949816,236.01773068477632 137.81657223799266,232.7032574945697 136.93696883850498,233.63598335548159 137.6635977337137,234.9850911271933 136.82223796035396,235.5513784996292" stroke="#4dd2ff" stroke-linecap="round" stroke-linejoin="round" stroke-width="0.5"><title>2017-12-13 10.9km</title></polyline></svg>